<?xml version="1.0" encoding="UTF-8"?>
<svg width="121px" height="17px" viewBox="0 0 121 17" version="1.1" xmlns="http://www.w3.org/2000/svg" xmlns:xlink="http://www.w3.org/1999/xlink">
    <defs></defs>
    <g id="Assets" stroke="none" stroke-width="1" fill="none" fill-rule="evenodd">
        <g id="Elements" transform="translate(-660.000000, -222.000000)" fill="#808284">
            <path d="M712.751739,234 C712.333797,233.076219 712.076203,232.064385 712.014462,231 L660,231 L660,230 L712.014462,230 C712.076203,228.935615 712.333797,227.923781 712.751739,227 L690,227 L690,226 L713.287553,226 C714.789478,223.597847 717.458141,222 720.5,222 C723.541859,222 726.210522,223.597847 727.712447,226 L751,226 L751,227 L728.248261,227 C728.666203,227.923781 728.923797,228.935615 728.985538,230 L781,230 L781,231 L728.985538,231 C728.923797,232.064385 728.666203,233.076219 728.248261,234 L751,234 L751,235 L727.712447,235 C726.210522,237.402153 723.541859,239 720.5,239 C717.458141,239 714.789478,237.402153 713.287553,235 L690,235 L690,234 L712.751739,234 Z M720.5,238 C724.642136,238 728,234.642136 728,230.5 C728,226.357864 724.642136,223 720.5,223 C716.357864,223 713,226.357864 713,230.5 C713,234.642136 716.357864,238 720.5,238 Z M720.5,234 C718.567003,234 717,232.432997 717,230.5 C717,228.567003 718.567003,227 720.5,227 C722.432997,227 724,228.567003 724,230.5 C724,232.432997 722.432997,234 720.5,234 Z" id="Sep-White"></path>
        </g>
    </g>
</svg>